<svg xmlns="http://www.w3.org/2000/svg" width="1250" height="780" viewBox="0 0 1250 780">
<rect x="0" y="0" width="1250" height="780" fill="#ffffff"/>
<style>
  text { font-family: "Segoe UI", Arial, sans-serif; fill: #1f2937; }
  .title { font-size: 26px; font-weight: 700; }
  .axis-title { font-size: 18px; font-weight: 600; }
  .tick { font-size: 14px; fill: #374151; }
  .label { font-size: 13px; font-weight: 600; }
  .legend-title { font-size: 15px; font-weight: 700; }
  .legend-text { font-size: 14px; }
</style>
<text class="title" x="620" y="48" text-anchor="middle">Stage Incremental Gain (Delta_k)</text>
<text class="tick" x="620" y="72" text-anchor="middle">Green marker: Delta_k &gt; 2% | Red marker: Delta_k &lt;= 2%</text>
<line x1="90" y1="685.0" x2="890" y2="685.0" stroke="#e5e7eb" stroke-width="1"/>
<text class="tick" x="80" y="690.0" text-anchor="end">0%</text>
<line x1="90" y1="586.7" x2="890" y2="586.7" stroke="#e5e7eb" stroke-width="1"/>
<text class="tick" x="80" y="591.7" text-anchor="end">10%</text>
<line x1="90" y1="488.3" x2="890" y2="488.3" stroke="#e5e7eb" stroke-width="1"/>
<text class="tick" x="80" y="493.3" text-anchor="end">20%</text>
<line x1="90" y1="390.0" x2="890" y2="390.0" stroke="#e5e7eb" stroke-width="1"/>
<text class="tick" x="80" y="395.0" text-anchor="end">30%</text>
<line x1="90" y1="291.7" x2="890" y2="291.7" stroke="#e5e7eb" stroke-width="1"/>
<text class="tick" x="80" y="296.7" text-anchor="end">40%</text>
<line x1="90" y1="193.3" x2="890" y2="193.3" stroke="#e5e7eb" stroke-width="1"/>
<text class="tick" x="80" y="198.3" text-anchor="end">50%</text>
<line x1="90" y1="95.0" x2="890" y2="95.0" stroke="#e5e7eb" stroke-width="1"/>
<text class="tick" x="80" y="100.0" text-anchor="end">60%</text>
<line x1="90" y1="95" x2="90" y2="685" stroke="#111827" stroke-width="2"/>
<line x1="90" y1="685" x2="890" y2="685" stroke="#111827" stroke-width="2"/>
<text class="tick" x="190.0" y="713" text-anchor="middle">Stage 1</text>
<line x1="190.0" y1="685" x2="190.0" y2="691" stroke="#111827" stroke-width="1.5"/>
<text class="tick" x="390.0" y="713" text-anchor="middle">Stage 2</text>
<line x1="390.0" y1="685" x2="390.0" y2="691" stroke="#111827" stroke-width="1.5"/>
<text class="tick" x="590.0" y="713" text-anchor="middle">Stage 3</text>
<line x1="590.0" y1="685" x2="590.0" y2="691" stroke="#111827" stroke-width="1.5"/>
<text class="tick" x="790.0" y="713" text-anchor="middle">Stage 4</text>
<line x1="790.0" y1="685" x2="790.0" y2="691" stroke="#111827" stroke-width="1.5"/>
<text class="axis-title" x="490.0" y="750" text-anchor="middle">Stage k</text>
<text class="axis-title" x="28" y="390.0" transform="rotate(-90,28,390.0)" text-anchor="middle">Delta_k (%)</text>
<rect x="133.0" y="508.0" width="34" height="177.0" fill="#1f77b4" opacity="0.9"/>
<circle cx="150.0" cy="498.0" r="6" fill="#2ca02c" stroke="#fff" stroke-width="1.2"/>
<text class="label" x="150.0" y="486.0" text-anchor="middle" fill="#1f77b4">18%</text>
<rect x="333.0" y="498.2" width="34" height="186.8" fill="#1f77b4" opacity="0.9"/>
<circle cx="350.0" cy="488.2" r="6" fill="#2ca02c" stroke="#fff" stroke-width="1.2"/>
<text class="label" x="350.0" y="476.2" text-anchor="middle" fill="#1f77b4">19%</text>
<rect x="533.0" y="517.8" width="34" height="167.2" fill="#1f77b4" opacity="0.9"/>
<circle cx="550.0" cy="507.8" r="6" fill="#2ca02c" stroke="#fff" stroke-width="1.2"/>
<text class="label" x="550.0" y="495.8" text-anchor="middle" fill="#1f77b4">17%</text>
<rect x="733.0" y="616.2" width="34" height="68.8" fill="#1f77b4" opacity="0.9"/>
<circle cx="750.0" cy="606.2" r="6" fill="#2ca02c" stroke="#fff" stroke-width="1.2"/>
<text class="label" x="750.0" y="594.2" text-anchor="middle" fill="#1f77b4">7%</text>
<rect x="173.0" y="439.2" width="34" height="245.8" fill="#ff7f0e" opacity="0.9"/>
<circle cx="190.0" cy="429.2" r="6" fill="#2ca02c" stroke="#fff" stroke-width="1.2"/>
<text class="label" x="190.0" y="417.2" text-anchor="middle" fill="#ff7f0e">25%</text>
<rect x="373.0" y="390.0" width="34" height="295.0" fill="#ff7f0e" opacity="0.9"/>
<circle cx="390.0" cy="380.0" r="6" fill="#2ca02c" stroke="#fff" stroke-width="1.2"/>
<text class="label" x="390.0" y="368.0" text-anchor="middle" fill="#ff7f0e">30%</text>
<rect x="573.0" y="419.5" width="34" height="265.5" fill="#ff7f0e" opacity="0.9"/>
<circle cx="590.0" cy="409.5" r="6" fill="#2ca02c" stroke="#fff" stroke-width="1.2"/>
<text class="label" x="590.0" y="397.5" text-anchor="middle" fill="#ff7f0e">27%</text>
<rect x="773.0" y="606.3" width="34" height="78.7" fill="#ff7f0e" opacity="0.9"/>
<circle cx="790.0" cy="596.3" r="6" fill="#2ca02c" stroke="#fff" stroke-width="1.2"/>
<text class="label" x="790.0" y="584.3" text-anchor="middle" fill="#ff7f0e">8%</text>
<rect x="213.0" y="291.7" width="34" height="393.3" fill="#2ca02c" opacity="0.9"/>
<circle cx="230.0" cy="281.7" r="6" fill="#2ca02c" stroke="#fff" stroke-width="1.2"/>
<text class="label" x="230.0" y="269.7" text-anchor="middle" fill="#2ca02c">40%</text>
<rect x="413.0" y="340.8" width="34" height="344.2" fill="#2ca02c" opacity="0.9"/>
<circle cx="430.0" cy="330.8" r="6" fill="#2ca02c" stroke="#fff" stroke-width="1.2"/>
<text class="label" x="430.0" y="318.8" text-anchor="middle" fill="#2ca02c">35%</text>
<rect x="613.0" y="508.0" width="34" height="177.0" fill="#2ca02c" opacity="0.9"/>
<circle cx="630.0" cy="498.0" r="6" fill="#2ca02c" stroke="#fff" stroke-width="1.2"/>
<text class="label" x="630.0" y="486.0" text-anchor="middle" fill="#2ca02c">18%</text>
<rect x="813.0" y="665.3" width="34" height="19.7" fill="#2ca02c" opacity="0.9"/>
<circle cx="830.0" cy="655.3" r="6" fill="#d62728" stroke="#fff" stroke-width="1.2"/>
<text class="label" x="830.0" y="643.3" text-anchor="middle" fill="#2ca02c">2%</text>
<text class="legend-title" x="915" y="132">Model</text>
<rect x="915" y="138" width="22" height="14" fill="#1f77b4"/>
<text class="legend-text" x="947" y="150">GPT-5.2-chat</text>
<rect x="915" y="170" width="22" height="14" fill="#ff7f0e"/>
<text class="legend-text" x="947" y="182">DeepSeek-Reasoner</text>
<rect x="915" y="202" width="22" height="14" fill="#2ca02c"/>
<text class="legend-text" x="947" y="214">Qwen3-8B</text>
<text class="legend-title" x="915" y="272">Gain Status</text>
<circle cx="925" cy="290" r="6" fill="#2ca02c" stroke="#fff" stroke-width="1"/>
<text class="legend-text" x="939" y="295">Delta_k &gt; 2% (Meaningful gain)</text>
<circle cx="925" cy="318" r="6" fill="#d62728" stroke="#fff" stroke-width="1"/>
<text class="legend-text" x="939" y="323">Delta_k &lt;= 2% (Plateau)</text>
</svg>
