<svg xmlns="http://www.w3.org/2000/svg" width="1280" height="760" viewBox="0 0 1280 760">
<rect x="0" y="0" width="1280" height="760" fill="#ffffff"/>
<style>
  text { font-family: "Segoe UI", Arial, sans-serif; fill: #1f2937; }
  .title { font-size: 26px; font-weight: 700; }
  .axis-title { font-size: 18px; font-weight: 600; }
  .tick { font-size: 14px; fill: #374151; }
  .label { font-size: 13px; font-weight: 600; }
  .legend-title { font-size: 15px; font-weight: 700; }
  .legend-text { font-size: 14px; }
</style>
<text class="title" x="640" y="48" text-anchor="middle">Convergence Diagnostic (C3/C4 and Delta_4)</text>
<line x1="70" y1="670.0" x2="605.0" y2="670.0" stroke="#e5e7eb" stroke-width="1"/>
<text class="tick" x="62" y="675.0" text-anchor="end">80%</text>
<line x1="70" y1="526.2" x2="605.0" y2="526.2" stroke="#e5e7eb" stroke-width="1"/>
<text class="tick" x="62" y="531.2" text-anchor="end">85%</text>
<line x1="70" y1="382.5" x2="605.0" y2="382.5" stroke="#e5e7eb" stroke-width="1"/>
<text class="tick" x="62" y="387.5" text-anchor="end">90%</text>
<line x1="70" y1="238.8" x2="605.0" y2="238.8" stroke="#e5e7eb" stroke-width="1"/>
<text class="tick" x="62" y="243.8" text-anchor="end">95%</text>
<line x1="70" y1="95.0" x2="605.0" y2="95.0" stroke="#e5e7eb" stroke-width="1"/>
<text class="tick" x="62" y="100.0" text-anchor="end">100%</text>
<line x1="70" y1="95" x2="70" y2="670" stroke="#111827" stroke-width="2"/>
<line x1="70" y1="670" x2="605.0" y2="670" stroke="#111827" stroke-width="2"/>
<text class="axis-title" x="337.5" y="732" text-anchor="middle">Model</text>
<text class="axis-title" x="337.5" y="75" text-anchor="middle">Convergence Ratio (C3/C4)</text>
<line x1="70" y1="238.8" x2="605.0" y2="238.8" stroke="#374151" stroke-width="2" stroke-dasharray="7 5"/>
<text class="tick" x="599.0" y="230.8" text-anchor="end">Threshold 95%</text>
<rect x="159.2" y="425.6" width="89.2" height="244.4" fill="#1f77b4" opacity="0.9"/>
<text class="tick" x="203.8" y="694" text-anchor="middle">GPT-5.2-chat</text>
<text class="label" x="203.8" y="415.6" text-anchor="middle">88.5%</text>
<rect x="337.5" y="350.9" width="89.2" height="319.1" fill="#ff7f0e" opacity="0.9"/>
<text class="tick" x="382.1" y="694" text-anchor="middle">DeepSeek-Reasoner</text>
<text class="label" x="382.1" y="340.9" text-anchor="middle">91.1%</text>
<rect x="515.8" y="155.4" width="89.2" height="514.6" fill="#2ca02c" opacity="0.9"/>
<text class="tick" x="560.4" y="694" text-anchor="middle">Qwen3-8B</text>
<text class="label" x="560.4" y="145.4" text-anchor="middle">97.9%</text>
<line x1="675.0" y1="670.0" x2="1210.0" y2="670.0" stroke="#e5e7eb" stroke-width="1"/>
<text class="tick" x="667.0" y="675.0" text-anchor="end">0%</text>
<line x1="675.0" y1="574.2" x2="1210.0" y2="574.2" stroke="#e5e7eb" stroke-width="1"/>
<text class="tick" x="667.0" y="579.2" text-anchor="end">1%</text>
<line x1="675.0" y1="478.3" x2="1210.0" y2="478.3" stroke="#e5e7eb" stroke-width="1"/>
<text class="tick" x="667.0" y="483.3" text-anchor="end">2%</text>
<line x1="675.0" y1="382.5" x2="1210.0" y2="382.5" stroke="#e5e7eb" stroke-width="1"/>
<text class="tick" x="667.0" y="387.5" text-anchor="end">3%</text>
<line x1="675.0" y1="286.7" x2="1210.0" y2="286.7" stroke="#e5e7eb" stroke-width="1"/>
<text class="tick" x="667.0" y="291.7" text-anchor="end">4%</text>
<line x1="675.0" y1="190.8" x2="1210.0" y2="190.8" stroke="#e5e7eb" stroke-width="1"/>
<text class="tick" x="667.0" y="195.8" text-anchor="end">5%</text>
<line x1="675.0" y1="95.0" x2="1210.0" y2="95.0" stroke="#e5e7eb" stroke-width="1"/>
<text class="tick" x="667.0" y="100.0" text-anchor="end">6%</text>
<line x1="675.0" y1="95" x2="675.0" y2="670" stroke="#111827" stroke-width="2"/>
<line x1="675.0" y1="670" x2="1210.0" y2="670" stroke="#111827" stroke-width="2"/>
<text class="axis-title" x="942.5" y="732" text-anchor="middle">Model</text>
<text class="axis-title" x="942.5" y="75" text-anchor="middle">Last-stage Gain (Delta_4)</text>
<line x1="675.0" y1="478.3" x2="1210.0" y2="478.3" stroke="#374151" stroke-width="2" stroke-dasharray="7 5"/>
<text class="tick" x="1204.0" y="470.3" text-anchor="end">Threshold 2%</text>
<rect x="764.2" y="-0.8" width="89.2" height="670.8" fill="#1f77b4" opacity="0.9"/>
<text class="tick" x="808.8" y="694" text-anchor="middle">GPT-5.2-chat</text>
<text class="label" x="808.8" y="-10.8" text-anchor="middle">7%</text>
<text class="tick" x="808.8" y="714" text-anchor="middle">No</text>
<rect x="942.5" y="-96.7" width="89.2" height="766.7" fill="#ff7f0e" opacity="0.9"/>
<text class="tick" x="987.1" y="694" text-anchor="middle">DeepSeek-Reasoner</text>
<text class="label" x="987.1" y="-106.7" text-anchor="middle">8%</text>
<text class="tick" x="987.1" y="714" text-anchor="middle">No</text>
<rect x="1120.8" y="478.3" width="89.2" height="191.7" fill="#2ca02c" opacity="0.9"/>
<text class="tick" x="1165.4" y="694" text-anchor="middle">Qwen3-8B</text>
<text class="label" x="1165.4" y="468.3" text-anchor="middle">2%</text>
<text class="tick" x="1165.4" y="714" text-anchor="middle">Yes</text>
</svg>
