<svg xmlns="http://www.w3.org/2000/svg" width="1200" height="760" viewBox="0 0 1200 760">
<rect x="0" y="0" width="1200" height="760" fill="#ffffff"/>
<style>
  text { font-family: "Segoe UI", Arial, sans-serif; fill: #1f2937; }
  .title { font-size: 26px; font-weight: 700; }
  .axis-title { font-size: 18px; font-weight: 600; }
  .tick { font-size: 14px; fill: #374151; }
  .label { font-size: 13px; font-weight: 600; }
  .legend-title { font-size: 15px; font-weight: 700; }
  .legend-text { font-size: 14px; }
</style>
<text class="title" x="600" y="48" text-anchor="middle">Cumulative Success Rate by Stage (C_k)</text>
<text class="tick" x="600" y="72" text-anchor="middle">N = 20 per model</text>
<line x1="90" y1="670.0" x2="880" y2="670.0" stroke="#e5e7eb" stroke-width="1"/>
<text class="tick" x="80" y="675.0" text-anchor="end">0%</text>
<line x1="90" y1="555.0" x2="880" y2="555.0" stroke="#e5e7eb" stroke-width="1"/>
<text class="tick" x="80" y="560.0" text-anchor="end">20%</text>
<line x1="90" y1="440.0" x2="880" y2="440.0" stroke="#e5e7eb" stroke-width="1"/>
<text class="tick" x="80" y="445.0" text-anchor="end">40%</text>
<line x1="90" y1="325.0" x2="880" y2="325.0" stroke="#e5e7eb" stroke-width="1"/>
<text class="tick" x="80" y="330.0" text-anchor="end">60%</text>
<line x1="90" y1="210.0" x2="880" y2="210.0" stroke="#e5e7eb" stroke-width="1"/>
<text class="tick" x="80" y="215.0" text-anchor="end">80%</text>
<line x1="90" y1="95.0" x2="880" y2="95.0" stroke="#e5e7eb" stroke-width="1"/>
<text class="tick" x="80" y="100.0" text-anchor="end">100%</text>
<line x1="90" y1="95" x2="90" y2="670" stroke="#111827" stroke-width="2"/>
<line x1="90" y1="670" x2="880" y2="670" stroke="#111827" stroke-width="2"/>
<line x1="90.0" y1="670" x2="90.0" y2="676" stroke="#111827" stroke-width="1.5"/>
<text class="tick" x="90.0" y="698" text-anchor="middle">Stage 1</text>
<line x1="353.3" y1="670" x2="353.3" y2="676" stroke="#111827" stroke-width="1.5"/>
<text class="tick" x="353.3" y="698" text-anchor="middle">Stage 2</text>
<line x1="616.7" y1="670" x2="616.7" y2="676" stroke="#111827" stroke-width="1.5"/>
<text class="tick" x="616.7" y="698" text-anchor="middle">Stage 3</text>
<line x1="880.0" y1="670" x2="880.0" y2="676" stroke="#111827" stroke-width="1.5"/>
<text class="tick" x="880.0" y="698" text-anchor="middle">Stage 4</text>
<text class="axis-title" x="485.0" y="732" text-anchor="middle">Stage k</text>
<text class="axis-title" x="28" y="382.5" transform="rotate(-90,28,382.5)" text-anchor="middle">C_k (%)</text>
<polyline points="90.0,566.5 353.3,457.2 616.7,359.5 880.0,319.2" fill="none" stroke="#1f77b4" stroke-width="3.5"/>
<circle cx="90.0" cy="566.5" r="6" fill="#1f77b4" stroke="#ffffff" stroke-width="1.5"/>
<text class="label" x="90.0" y="554.5" text-anchor="middle" fill="#1f77b4">18%</text>
<circle cx="353.3" cy="457.2" r="6" fill="#1f77b4" stroke="#ffffff" stroke-width="1.5"/>
<text class="label" x="353.3" y="445.2" text-anchor="middle" fill="#1f77b4">37%</text>
<circle cx="616.7" cy="359.5" r="6" fill="#1f77b4" stroke="#ffffff" stroke-width="1.5"/>
<text class="label" x="616.7" y="347.5" text-anchor="middle" fill="#1f77b4">54%</text>
<circle cx="880.0" cy="319.2" r="6" fill="#1f77b4" stroke="#ffffff" stroke-width="1.5"/>
<text class="label" x="880.0" y="307.2" text-anchor="middle" fill="#1f77b4">61%</text>
<polyline points="90.0,526.2 353.3,353.8 616.7,198.5 880.0,152.5" fill="none" stroke="#ff7f0e" stroke-width="3.5"/>
<circle cx="90.0" cy="526.2" r="6" fill="#ff7f0e" stroke="#ffffff" stroke-width="1.5"/>
<text class="label" x="90.0" y="514.2" text-anchor="middle" fill="#ff7f0e">25%</text>
<circle cx="353.3" cy="353.8" r="6" fill="#ff7f0e" stroke="#ffffff" stroke-width="1.5"/>
<text class="label" x="353.3" y="341.8" text-anchor="middle" fill="#ff7f0e">55%</text>
<circle cx="616.7" cy="198.5" r="6" fill="#ff7f0e" stroke="#ffffff" stroke-width="1.5"/>
<text class="label" x="616.7" y="186.5" text-anchor="middle" fill="#ff7f0e">82%</text>
<circle cx="880.0" cy="152.5" r="6" fill="#ff7f0e" stroke="#ffffff" stroke-width="1.5"/>
<text class="label" x="880.0" y="140.5" text-anchor="middle" fill="#ff7f0e">90%</text>
<polyline points="90.0,440.0 353.3,238.8 616.7,135.2 880.0,123.8" fill="none" stroke="#2ca02c" stroke-width="3.5"/>
<circle cx="90.0" cy="440.0" r="6" fill="#2ca02c" stroke="#ffffff" stroke-width="1.5"/>
<text class="label" x="90.0" y="428.0" text-anchor="middle" fill="#2ca02c">40%</text>
<circle cx="353.3" cy="238.8" r="6" fill="#2ca02c" stroke="#ffffff" stroke-width="1.5"/>
<text class="label" x="353.3" y="226.8" text-anchor="middle" fill="#2ca02c">75%</text>
<circle cx="616.7" cy="135.2" r="6" fill="#2ca02c" stroke="#ffffff" stroke-width="1.5"/>
<text class="label" x="616.7" y="123.2" text-anchor="middle" fill="#2ca02c">93%</text>
<circle cx="880.0" cy="123.8" r="6" fill="#2ca02c" stroke="#ffffff" stroke-width="1.5"/>
<text class="label" x="880.0" y="111.8" text-anchor="middle" fill="#2ca02c">95%</text>
<text class="legend-title" x="910" y="145">Model</text>
<line x1="910" y1="165" x2="944" y2="165" stroke="#1f77b4" stroke-width="4"/>
<circle cx="927" cy="165" r="5" fill="#1f77b4" stroke="#fff" stroke-width="1"/>
<text class="legend-text" x="955" y="170">GPT-5.2-chat</text>
<line x1="910" y1="197" x2="944" y2="197" stroke="#ff7f0e" stroke-width="4"/>
<circle cx="927" cy="197" r="5" fill="#ff7f0e" stroke="#fff" stroke-width="1"/>
<text class="legend-text" x="955" y="202">DeepSeek-Reasoner</text>
<line x1="910" y1="229" x2="944" y2="229" stroke="#2ca02c" stroke-width="4"/>
<circle cx="927" cy="229" r="5" fill="#2ca02c" stroke="#fff" stroke-width="1"/>
<text class="legend-text" x="955" y="234">Qwen3-8B</text>
</svg>
